<svg  xmlns="http://www.w3.org/2000/svg" style="display: none;">
    <symbol id="home">
        <path d="M8.707 1.5a1 1 0 0 0-1.414 0L.646 8.146a.5.5 0 0 0 .708.708L2 8.207V13.5A1.5 1.5 0 0 0 3.5 15h9a1.5 1.5 0 0 0 1.5-1.5V8.207l.646.647a.5.5 0 0 0 .708-.708L13 5.793V2.5a.5.5 0 0 0-.5-.5h-1a.5.5 0 0 0-.5.5v1.293zM13 7.207V13.5a.5.5 0 0 1-.5.5h-9a.5.5 0 0 1-.5-.5V7.207l5-5z"/>
    </symbol>

    <symbol id="projects">
        <path d="M.54 3.87.5 3a2 2 0 0 1 2-2h3.672a2 2 0 0 1 1.414.586l.828.828A2 2 0 0 0 9.828 3h3.982a2 2 0 0 1 1.992 2.181l-.637 7A2 2 0 0 1 13.174 14H2.826a2 2 0 0 1-1.991-1.819l-.637-7a2 2 0 0 1 .342-1.31zM2.19 4a1 1 0 0 0-.996 1.09l.637 7a1 1 0 0 0 .995.91h10.348a1 1 0 0 0 .995-.91l.637-7A1 1 0 0 0 13.81 4zm4.69-1.707A1 1 0 0 0 6.172 2H2.5a1 1 0 0 0-1 .981l.006.139q.323-.119.684-.12h5.396z"/>
    </symbol>

    <symbol id="experience">
        <path d="M6.5 1A1.5 1.5 0 0 0 5 2.5V3H1.5A1.5 1.5 0 0 0 0 4.5v8A1.5 1.5 0 0 0 1.5 14h13a1.5 1.5 0 0 0 1.5-1.5v-8A1.5 1.5 0 0 0 14.5 3H11v-.5A1.5 1.5 0 0 0 9.5 1zm0 1h3a.5.5 0 0 1 .5.5V3H6v-.5a.5.5 0 0 1 .5-.5m1.886 6.914L15 7.151V12.5a.5.5 0 0 1-.5.5h-13a.5.5 0 0 1-.5-.5V7.15l6.614 1.764a1.5 1.5 0 0 0 .772 0M1.5 4h13a.5.5 0 0 1 .5.5v1.616L8.129 7.948a.5.5 0 0 1-.258 0L1 6.116V4.5a.5.5 0 0 1 .5-.5"/>
    </symbol>

    <symbol id="tools">
        <path d="M16 4.5a4.5 4.5 0 0 1-1.703 3.526L13 5l2.959-1.11q.04.3.041.61"/>
        <path d="M11.5 9c.653 0 1.273-.139 1.833-.39L12 5.5 11 3l3.826-1.53A4.5 4.5 0 0 0 7.29 6.092l-6.116 5.096a2.583 2.583 0 1 0 3.638 3.638L9.908 8.71A4.5 4.5 0 0 0 11.5 9m-1.292-4.361-.596.893.809-.27a.25.25 0 0 1 .287.377l-.596.893.809-.27.158.475-1.5.5a.25.25 0 0 1-.287-.376l.596-.893-.809.27a.25.25 0 0 1-.287-.377l.596-.893-.809.27-.158-.475 1.5-.5a.25.25 0 0 1 .287.376M3 14a1 1 0 1 1 0-2 1 1 0 0 1 0 2"/>
    </symbol>

    <symbol id="thoughts">
        <path d="M15.502 1.94a.5.5 0 0 1 0 .706L14.459 3.69l-2-2L13.502.646a.5.5 0 0 1 .707 0l1.293 1.293zm-1.75 2.456-2-2L4.939 9.21a.5.5 0 0 0-.121.196l-.805 2.414a.25.25 0 0 0 .316.316l2.414-.805a.5.5 0 0 0 .196-.12l6.813-6.814z"/>
        <path fill-rule="evenodd" d="M1 13.5A1.5 1.5 0 0 0 2.5 15h11a1.5 1.5 0 0 0 1.5-1.5v-6a.5.5 0 0 0-1 0v6a.5.5 0 0 1-.5.5h-11a.5.5 0 0 1-.5-.5v-11a.5.5 0 0 1 .5-.5H9a.5.5 0 0 0 0-1H2.5A1.5 1.5 0 0 0 1 2.5z"/>
    </symbol>

    <symbol id="app-logo">
        <svg xmlns="http://www.w3.org/2000/svg" width="512" height="512" xml:space="preserve"><circle fill="#F3CF3D" cx="256" cy="256" r="256"/><path opacity=".1" d="M511.639 269.621 404.442 164.48l-5.775 26.187-90.549-62.374L201 138l-4.906 17.595L191 184.333l-26.052 125.282 19.222 19.222-77.344 53.324L236.565 511.27c6.415.482 12.896.73 19.435.73 136.815 0 248.558-107.327 255.639-242.379z"/><path fill="#42536C" d="M199.015 169.702v-18.98c0-5.926 4.986-10.729 11.139-10.729h91.693c6.153 0 11.141 4.804 11.141 10.729v18.98h7.496V145.17c0-6.961-5.644-12.604-12.604-12.604H204.122c-6.961 0-12.604 5.643-12.604 12.604v24.532h7.497z"/><path fill="#57687C" d="M204.122 129.414h105.854v13.975H204.122z"/><path fill="#42536C" d="M106.319 164.704H405.68v217.882H106.319z"/><path fill="#57687C" d="M106.319 254.876c40.465 11.713 92.679 18.769 149.681 18.769 57.002 0 109.217-7.056 149.681-18.769v-90.172H106.319v90.172z"/><g fill="#E6E7E8"><path d="M247.223 281.563h17.557v2.886h-17.557zM247.223 246.677v32.411h17.557v-32.411h-17.557zM256 277.246a3.039 3.039 0 1 1 0-6.077 3.039 3.039 0 0 1 0 6.077z"/></g></svg>
    </symbol>

    <symbol id="linkedin">
        <path d="M0 1.146C0 .513.526 0 1.175 0h13.65C15.474 0 16 .513 16 1.146v13.708c0 .633-.526 1.146-1.175 1.146H1.175C.526 16 0 15.487 0 14.854zm4.943 12.248V6.169H2.542v7.225zm-1.2-8.212c.837 0 1.358-.554 1.358-1.248-.015-.709-.52-1.248-1.342-1.248S2.4 3.226 2.4 3.934c0 .694.521 1.248 1.327 1.248zm4.908 8.212V9.359c0-.216.016-.432.08-.586.173-.431.568-.878 1.232-.878.869 0 1.216.662 1.216 1.634v3.865h2.401V9.25c0-2.22-1.184-3.252-2.764-3.252-1.274 0-1.845.7-2.165 1.193v.025h-.016l.016-.025V6.169h-2.4c.03.678 0 7.225 0 7.225z"/>
    </symbol>

    <symbol id="mail">
        <path d="M0 4a2 2 0 0 1 2-2h12a2 2 0 0 1 2 2v8a2 2 0 0 1-2 2H2a2 2 0 0 1-2-2zm2-1a1 1 0 0 0-1 1v.217l7 4.2 7-4.2V4a1 1 0 0 0-1-1zm13 2.383-4.708 2.825L15 11.105zm-.034 6.876-5.64-3.471L8 9.583l-1.326-.795-5.64 3.47A1 1 0 0 0 2 13h12a1 1 0 0 0 .966-.741M1 11.105l4.708-2.897L1 5.383z"/>
    </symbol>

    <symbol id="arrow-right">
        <path fill-rule="evenodd" d="M1 8a.5.5 0 0 1 .5-.5h11.793l-3.147-3.146a.5.5 0 0 1 .708-.708l4 4a.5.5 0 0 1 0 .708l-4 4a.5.5 0 0 1-.708-.708L13.293 8.5H1.5A.5.5 0 0 1 1 8"/>
    </symbol>

    <symbol id="arrow-up-right">
        <path fill-rule="evenodd" d="M14 2.5a.5.5 0 0 0-.5-.5h-6a.5.5 0 0 0 0 1h4.793L2.146 13.146a.5.5 0 0 0 .708.708L13 3.707V8.5a.5.5 0 0 0 1 0z"/>
    </symbol>

    <symbol id="react-logo">
  <path d="M666.3 296.5c0-32.5-40.7-63.3-103.1-82.4 14.4-63.6 8-114.2-20.2-130.4-6.5-3.8-14.1-5.6-22.4-5.6v22.3c4.6 0 8.3.9 11.4 2.6 13.6 7.8 19.5 37.5 14.9 75.7-1.1 9.4-2.9 19.3-5.1 29.4-19.6-4.8-41-8.5-63.5-10.9-13.5-18.5-27.5-35.3-41.6-50 32.6-30.3 63.2-46.9 84-46.9v-22.3c-27.5 0-63.5 19.6-99.9 53.6-36.4-33.8-72.4-53.2-99.9-53.2v22.3c20.7 0 51.4 16.5 84 46.6-14 14.7-28 31.4-41.3 49.9-22.6 2.4-44 6.1-63.6 11-2.3-10-4-19.7-5.2-29-4.7-38.2 1.1-67.9 14.6-75.8 3-1.8 6.9-2.6 11.5-2.6v-22.3c-8.4 0-16 1.8-22.6 5.6-28.1 16.2-34.4 66.7-19.9 130.1-62.2 19.2-102.7 49.9-102.7 82.3 0 32.5 40.7 63.3 103.1 82.4-14.4 63.6-8 114.2 20.2 130.4 6.5 3.8 14.1 5.6 22.5 5.6 27.5 0 63.5-19.6 99.9-53.6 36.4 33.8 72.4 53.2 99.9 53.2 8.4 0 16-1.8 22.6-5.6 28.1-16.2 34.4-66.7 19.9-130.1 62-19.1 102.5-49.9 102.5-82.3zm-130.2-66.7c-3.7 12.9-8.3 26.2-13.5 39.5-4.1-8-8.4-16-13.1-24-4.6-8-9.5-15.8-14.4-23.4 14.2 2.1 27.9 4.7 41 7.9zm-45.8 106.5c-7.8 13.5-15.8 26.3-24.1 38.2-14.9 1.3-30 2-45.2 2-15.1 0-30.2-.7-45-1.9-8.3-11.9-16.4-24.6-24.2-38-7.6-13.1-14.5-26.4-20.8-39.8 6.2-13.4 13.2-26.8 20.7-39.9 7.8-13.5 15.8-26.3 24.1-38.2 14.9-1.3 30-2 45.2-2 15.1 0 30.2.7 45 1.9 8.3 11.9 16.4 24.6 24.2 38 7.6 13.1 14.5 26.4 20.8 39.8-6.3 13.4-13.2 26.8-20.7 39.9zm32.3-13c5.4 13.4 10 26.8 13.8 39.8-13.1 3.2-26.9 5.9-41.2 8 4.9-7.7 9.8-15.6 14.4-23.7 4.6-8 8.9-16.1 13-24.1zm-101.4 106.7c-9.3-9.6-18.6-20.3-27.8-32 9 .4 18.2.7 27.5.7 9.4 0 18.7-.2 27.8-.7-9 11.7-18.3 22.4-27.5 32zm-74.4-58.9c-14.2-2.1-27.9-4.7-41-7.9 3.7-12.9 8.3-26.2 13.5-39.5 4.1 8 8.4 16 13.1 24 4.7 8 9.5 15.8 14.4 23.4zm73.9-208.1c9.3 9.6 18.6 20.3 27.8 32-9-.4-18.2-.7-27.5-.7-9.4 0-18.7.2-27.8.7 9-11.7 18.3-22.4 27.5-32zm-74 58.9c-4.9 7.7-9.8 15.6-14.4 23.7-4.6 8-8.9 16-13 24-5.4-13.4-10-26.8-13.8-39.8 13.1-3.1 26.9-5.8 41.2-7.9zm-90.5 125.2c-35.4-15.1-58.3-34.9-58.3-50.6 0-15.7 22.9-35.6 58.3-50.6 8.6-3.7 18-7 27.7-10.1 5.7 19.6 13.2 40 22.5 60.9-9.2 20.8-16.6 41.1-22.2 60.6-9.9-3.1-19.3-6.5-28-10.2zm53.8 142.9c-13.6-7.8-19.5-37.5-14.9-75.7 1.1-9.4 2.9-19.3 5.1-29.4 19.6 4.8 41 8.5 63.5 10.9 13.5 18.5 27.5 35.3 41.6 50-32.6 30.3-63.2 46.9-84 46.9-4.5-.1-8.3-1-11.3-2.7zm237.2-76.2c4.7 38.2-1.1 67.9-14.6 75.8-3 1.8-6.9 2.6-11.5 2.6-20.7 0-51.4-16.5-84-46.6 14-14.7 28-31.4 41.3-49.9 22.6-2.4 44-6.1 63.6-11 2.3 10.1 4.1 19.8 5.2 29.1zm38.5-66.7c-8.6 3.7-18 7-27.7 10.1-5.7-19.6-13.2-40-22.5-60.9 9.2-20.8 16.6-41.1 22.2-60.6 9.9 3.1 19.3 6.5 28.1 10.2 35.4 15.1 58.3 34.9 58.3 50.6-.1 15.7-23 35.6-58.4 50.6zM320.8 78.4z"/>
    </symbol>
</svg>
